<svg width="36" height="42" viewBox="0 0 36 42" fill="none" xmlns="http://www.w3.org/2000/svg">
<g filter="url(#filter0_d_0_210)">
<path d="M13.8169 15.3114L6.32092 15.3114L9.23604 20.5789L6.32092 26.6568L13.8169 26.6568L10.9018 35.9762L20.2719 27.4672L29.6419 20.5789L20.2719 14.0959L10.9018 5.99207L13.8169 15.3114Z" fill="url(#paint0_linear_0_210)"/>
<path d="M13.8169 15.9929H14.7441L14.4673 15.108L12.267 8.07371L19.8261 14.6113L19.8539 14.6354L19.8841 14.6563L28.4685 20.5957L19.8682 26.9181L19.8398 26.939L19.8137 26.9627L12.3013 33.7848L14.4673 26.8602L14.7441 25.9753H13.8169L7.40356 25.9753L9.85048 20.8736L10.0025 20.5566L9.83228 20.2489L7.47691 15.9929L13.8169 15.9929Z" stroke="#474852" stroke-width="1.36291"/>
</g>
<defs>
<filter id="filter0_d_0_210" x="0.869269" y="0.540412" width="34.2242" height="40.8874" filterUnits="userSpaceOnUse" color-interpolation-filters="sRGB">
<feFlood flood-opacity="0" result="BackgroundImageFix"/>
<feColorMatrix in="SourceAlpha" type="matrix" values="0 0 0 0 0 0 0 0 0 0 0 0 0 0 0 0 0 0 127 0" result="hardAlpha"/>
<feOffset/>
<feGaussianBlur stdDeviation="2.72583"/>
<feComposite in2="hardAlpha" operator="out"/>
<feColorMatrix type="matrix" values="0 0 0 0 0 0 0 0 0 0 0 0 0 0 0 0 0 0 0.1 0"/>
<feBlend mode="normal" in2="BackgroundImageFix" result="effect1_dropShadow_0_210"/>
<feBlend mode="normal" in="SourceGraphic" in2="effect1_dropShadow_0_210" result="shape"/>
</filter>
<linearGradient id="paint0_linear_0_210" x1="17.9814" y1="5.99207" x2="17.9814" y2="35.9762" gradientUnits="userSpaceOnUse">
<stop offset="0.482292" stop-color="#141414"/>
<stop offset="1" stop-color="#5A5A5A"/>
</linearGradient>
</defs>
</svg>
